HIERARCHY
ROOT Hips
{
  OFFSET 263.056 91.6644 -274.608
  CHANNELS 6 Xposition Yposition Zposition Zrotation Xrotation Yrotation
  JOINT LeftUpLeg
  {
    OFFSET 8.64259 1.95398 -2.38835
    CHANNELS 3 Zrotation Xrotation Yrotation
    JOINT LeftLeg
    {
      OFFSET 43.7702 0 0
      CHANNELS 3 Zrotation Xrotation Yrotation
      JOINT LeftFoot
      {
        OFFSET 40.6238 0 0
        CHANNELS 3 Zrotation Xrotation Yrotation
        JOINT LeftToeBase
        {
          OFFSET 12.7242 0 0
          CHANNELS 3 Zrotation Xrotation Yrotation
          End Site
          {
            OFFSET 0 0 0
          }
        }
      }
    }
  }
  JOINT RightUpLeg
  {
    OFFSET -8.2249 1.95398 -2.59336
    CHANNELS 3 Zrotation Xrotation Yrotation
    JOINT RightLeg
    {
      OFFSET 43.5653 0 0
      CHANNELS 3 Zrotation Xrotation Yrotation
      JOINT RightFoot
      {
        OFFSET 40.6238 0 0
        CHANNELS 3 Zrotation Xrotation Yrotation
        JOINT RightToeBase
        {
          OFFSET 12.7242 0 0
          CHANNELS 3 Zrotation Xrotation Yrotation
          End Site
          {
            OFFSET 0 0 0
          }
        }
      }
    }
  }
  JOINT Spine
  {
    OFFSET 0.165834 0.87714 6.61349
    CHANNELS 3 Zrotation Xrotation Yrotation
    JOINT Spine1
    {
      OFFSET 7.38963 1.71661e-005 0
      CHANNELS 3 Zrotation Xrotation Yrotation
      JOINT Spine2
      {
        OFFSET 11.9445 1.14441e-005 0
        CHANNELS 3 Zrotation Xrotation Yrotation
        JOINT Spine3
        {
          OFFSET 14.7254 4.19617e-005 0
          CHANNELS 3 Zrotation Xrotation Yrotation
          JOINT Spine4
          {
            OFFSET 10.9679 0 0
            CHANNELS 3 Zrotation Xrotation Yrotation
            JOINT RightShoulder
            {
              OFFSET 2.46616 -1.6653 3.69651
              CHANNELS 3 Zrotation Xrotation Yrotation
              JOINT RightArm
              {
                OFFSET 13.0012 0 0
                CHANNELS 3 Zrotation Xrotation Yrotation
                JOINT RightForeArm
                {
                  OFFSET 28.7848 1.52588e-005 0
                  CHANNELS 3 Zrotation Xrotation Yrotation
                  JOINT RightHand
                  {
                    OFFSET 26.5688 1.52588e-005 0
                    CHANNELS 3 Zrotation Xrotation Yrotation
                    End Site
                    {
                      OFFSET 0 0 0
                    }
                  }
                }
              }
            }
            JOINT LeftShoulder
            {
              OFFSET 2.38034 -1.29275 -3.7523
              CHANNELS 3 Zrotation Xrotation Yrotation
              JOINT LeftArm
              {
                OFFSET 16.3182 6.10352e-005 0
                CHANNELS 3 Zrotation Xrotation Yrotation
                JOINT LeftForeArm
                {
                  OFFSET 27.0901 0 0
                  CHANNELS 3 Zrotation Xrotation Yrotation
                  JOINT LeftHand
                  {
                    OFFSET 24.5451 1.52588e-005 0
                    CHANNELS 3 Zrotation Xrotation Yrotation
                    End Site
                    {
                      OFFSET 0 0 0
                    }
                  }
                }
              }
            }
            JOINT Neck
            {
              OFFSET 5.0226 -0.0266342 0
              CHANNELS 3 Zrotation Xrotation Yrotation
              JOINT Head
              {
                OFFSET 6.69364 2.86102e-005 0
                CHANNELS 3 Zrotation Xrotation Yrotation
                End Site
                {
                  OFFSET 0 0 0
                }
              }
            }
          }
        }
      }
    }
  }
}
MOTION
Frames:	11
Frame Time:	0.0416667
-304.715 77.5219 -315.775 30.03 -12.5595 -77.9168 1.00753 45.9779 -99.3214 -49.9389 22.943 1.70948 44.7449 -36.6377 39.9378 161.181 -3.05996 -101.165 100.827 64.4889 175.252 -0.431581 -45.2789 4.88777 -19.6236 21.9445 55.1372 127.73 -0.512673 -7.94125 0.648943 -5.51418 -80.8986 37.0903 7.32294 16.5159 25.3392 8.03328 16.1895 3.61588 2.11056 17.9052 23.6285 2.11055 17.9052 135.818 -65.2221 -38.9406 91.883 8.02479 17.1655 -64.8306 5.21218 -0.0312083 6.2416 -4.43423 -46.2525 107.55 50.1324 -83.6301 -17.6023 -24.7008 171.155 -51.6072 -5.51184 -0.894955 -0.967414 -0.809801 -58.5874 -6.35724 -35.5587 25.2128 34.4996 -41.0873 -13.1988 
-304.886 77.6352 -315.921 29.6053 -12.5111 -77.8971 0.899257 46.1766 -99.3125 -50.1057 21.313 1.72744 45.0371 -35.8325 38.9578 160.673 -4.50152 -101.958 101.767 64.4288 174.374 -0.286087 -46.3455 5.02366 -19.473 22.2261 55.6402 127.764 -1.36402 -8.76493 0.684719 -5.48931 -80.9056 37.0399 7.37947 16.4754 25.2896 8.08802 16.1466 3.56119 2.17623 17.8831 23.5738 2.17624 17.8831 135.977 -65.178 -38.7254 91.9587 8.10158 17.254 -65.0282 4.97523 -0.0311968 6.3096 -4.46102 -45.9752 108.383 50.0464 -83.8054 -17.9233 -21.9596 170.656 -51.8311 -1.97654 -0.00979013 -1.25562 -0.664563 -58.7987 -6.73631 -35.6971 24.8284 35.0658 -41.0534 -12.6845 
-305.376 77.9685 -316.338 28.3879 -12.3768 -77.8351 0.578694 46.7447 -99.2681 -50.5839 16.8526 1.76883 45.7669 -33.7777 35.9167 158.379 -9.09463 -104.631 104.432 64.2281 171.884 0.202742 -49.5498 5.48548 -18.9059 23.1292 57.0499 127.788 -3.88377 -11.2045 0.786615 -5.41815 -80.9282 36.8969 7.5388 16.3551 25.1491 8.2421 16.0193 3.40522 2.3632 17.8148 23.4179 2.36319 17.8147 136.409 -65.0445 -38.1349 92.1678 8.32804 17.515 -65.6011 4.31128 -0.0311674 6.51795 -4.53911 -45.1811 110.561 49.8255 -84.2557 -18.4026 -13.0214 169.655 -51.2924 13.0352 -0.0690224 -2.08454 -0.238386 -59.1652 -7.80894 -36.08 23.7316 36.6672 -40.9366 -11.2195 
-306.142 78.5178 -316.991 26.4734 -12.1743 -77.7191 0.0577049 47.6387 -99.1237 -51.351 10.5622 1.79264 46.5592 -31.3605 30.4465 149.879 -18.1755 -111.774 108.541 63.8304 168.067 1.25686 -55.0356 6.47337 -17.5635 24.864 59.1034 127.579 -8.08879 -15.3063 0.945297 -5.30721 -80.9708 36.6756 7.7825 16.1549 24.9317 8.47712 15.8084 3.16246 2.65382 17.6951 23.1751 2.65382 17.6951 137.034 -64.8169 -37.2651 92.4797 8.7003 17.9437 -66.5234 3.32876 -0.0311317 6.88872 -4.66609 -43.9353 113.512 49.5369 -84.8495 -18.0759 4.40978 169.136 -44.9682 36.4389 -0.0757244 -3.4319 0.458246 -58.8832 -9.46038 -36.6475 22.0213 39.1205 -40.699 -8.94532 
-307.135 79.2838 -317.843 23.9646 -11.9236 -77.5331 -0.623101 48.8215 -98.7638 -52.428 3.81637 1.72451 46.8162 -29.6965 21.9271 105.742 -27.8964 -141.9 113.756 63.1664 163.266 3.57275 -62.9926 8.65324 -14.8529 27.719 61.2108 126.713 -14.0457 -21.2944 1.14997 -5.16356 -81.0387 36.392 8.08989 15.8748 24.6535 8.77235 15.5147 2.84898 3.02834 17.5181 22.8616 3.02834 17.5181 137.768 -64.4922 -36.2142 92.861 9.21629 18.5369 -67.7714 2.15203 -0.0311012 7.44935 -4.83691 -42.3126 116.638 49.2484 -85.4611 -16.245 31.7482 169.71 -28.525 58.5645 -0.0789792 -5.41853 1.41046 -56.8251 -11.5657 -37.336 19.8029 42.2157 -40.2963 -6.02283 
-308.25 79.9262 -318.797 20.966 -11.6448 -77.2621 -1.45889 49.8127 -97.9844 -54.8481 -1.85219 1.47797 46.1327 -29.7767 9.2235 -8.491 29.625 -156.979 119.891 62.131 157.72 9.93831 -73.3291 14.7716 -9.89882 31.8227 62.1174 124.364 -21.705 -29.7182 1.38935 -4.99412 -81.1356 36.0618 8.43982 15.5172 24.3299 9.1068 15.1416 2.48079 3.46582 17.2805 22.4934 3.46581 17.2805 138.542 -64.0723 -35.0674 93.2768 9.87321 19.2912 -69.3199 0.883008 -0.0310829 8.21579 -5.04101 -40.3975 119.406 49.0147 -85.9917 -12.9976 63.8772 171.039 -7.19345 72.5104 -0.0361163 -7.90735 2.36423 -52.2904 -14.0046 -38.0902 17.1743 45.743 -39.6925 -2.61721 
-309.426 80.2879 -319.811 17.5851 -11.3592 -76.8957 -2.14671 50.7955 -96.705 -58.3414 -5.88718 0.983195 42.5678 -31.1058 -10.7507 -101.907 7.85383 -92.1569 126.599 60.6269 151.822 48.0649 -84.2991 52.5019 -1.67373 36.6364 59.839 118.988 -30.5797 -41.753 1.65151 -4.80571 -81.263 35.6994 8.81166 15.0891 23.975 9.46008 14.697 2.07348 3.94456 16.9829 22.0861 3.94455 16.9829 139.304 -63.5652 -33.8898 93.6912 10.6654 20.202 -71.1375 -0.421728 -0.0310801 9.18467 -5.26257 -38.2831 121.409 48.8726 -86.3742 82.6485 89.8939 80.8222 7.74457 76.274 0.0492157 -8.61872 2.20773 -44.8288 -16.6679 -38.8668 14.2195 49.5066 -38.8686 1.1106 
-310.682 80.7268 -320.937 13.9328 -11.0885 -76.4305 -2.26788 53.3508 -95.1603 -59.6309 -8.37456 0.215042 35.0446 -30.4037 -38.7715 -102.528 -47.6455 -76.9451 133.25 58.6586 146.166 150.253 -78.7874 154.147 10.3545 40.3735 52.5449 108.02 -39.0881 -59.4723 1.92473 -4.60456 -81.4194 35.3177 9.18631 14.603 23.6015 9.81365 14.1941 1.64141 4.4428 16.6318 21.6541 4.4428 16.6318 140.022 -62.9836 -32.7229 94.0679 11.5823 21.2628 -73.1837 -1.77252 -0.0310941 10.3309 -5.48284 -36.0663 122.405 48.8396 -86.572 173.796 75.0584 -5.27046 12.7127 69.1378 0.0537305 -3.25155 0.167302 -35.0542 -19.4616 -39.6358 11.0043 53.3379 -37.8255 5.01288 
-311.966 81.2064 -322.14 10.1151 -10.8529 -75.8715 -2.64811 57.8113 -93.5295 -57.291 -10.2645 -0.803983 28.6256 -25.3929 -65.8442 16.1546 -62.9162 55.4794 139.447 56.2427 141.117 163.628 -66.4513 166.914 24.456 40.577 40.8929 89.3425 -43.5423 -84.3496 2.19825 -4.39571 -81.6004 34.9265 9.54825 14.0756 23.2187 10.1527 13.6503 1.19649 4.94098 16.2385 21.2092 4.94099 16.2385 140.684 -62.3411 -31.5884 94.3716 12.6072 22.4665 -75.4119 -3.28219 -0.0311303 11.6123 -5.68455 -33.8348 122.314 48.9194 -86.5736 177.551 69.129 -4.877 11.7121 57.6548 0.0326558 6.63507 -1.8232 -26.1049 -22.3144 -40.3782 7.57301 57.109 -36.5807 8.96767 
-313.245 81.7089 -323.392 6.22674 -10.6688 -75.231 -4.53386 62.8089 -91.4393 -53.3931 -13.0489 -2.03615 26.4751 -18.355 -84.0286 35.9722 -23.8831 89.5121 144.914 53.4726 136.903 167.49 -55.7708 170.219 36.3847 36.5123 28.8984 67.299 -39.535 -111.47 2.46344 -4.18326 -81.8 34.5325 9.88625 13.5243 22.833 10.4668 13.0836 0.747574 5.42337 15.8164 20.7602 5.42338 15.8164 141.284 -61.6501 -30.4977 94.5672 13.7176 23.8069 -77.7729 -5.20344 -0.0312078 12.9791 -5.85468 -31.6561 121.152 49.1112 -86.3782 -178.63 68.7662 -5.35916 8.64097 47.4311 0.0415885 15.4664 -2.3726 -18.7861 -25.1734 -41.0811 3.95462 60.7328 -35.1623 12.8819 
-314.501 82.2129 -324.671 2.35103 -10.5487 -74.5277 -8.40671 67.3736 -88.1752 -49.9184 -16.0419 -3.4425 26.6366 -11.9504 -94.1365 35.4481 -0.824992 101.603 149.558 50.4946 133.574 169.12 -47.6638 171.432 43.7056 30.0055 19.6049 50.3791 -26.9665 -131.913 2.71371 -3.97003 -82.0115 34.14 10.1926 12.9661 22.4486 10.7489 12.5113 0.300869 5.87781 15.379 20.3135 5.87779 15.3789 141.815 -60.9193 -29.4626 94.6195 14.8848 25.2805 -80.2097 -8.03376 -0.0313873 14.3792 -5.98446 -29.5765 118.948 49.4163 -85.9819 -174.026 71.3168 -7.14081 5.69136 38.797 0.0560506 21.8308 -1.72813 -11.984 -27.9969 -41.734 0.173292 64.1552 -33.6035 16.6849 
